<svg width="3000" height="800" viewBox="0 0 3000 800" xmlns="http://www.w3.org/2000/svg">
  <rect width="3000" height="800" fill="#0a0e14"/>
  <defs>
    <pattern id="hexPattern" x="0" y="0" width="60" height="52" patternUnits="userSpaceOnUse">
      <path d="M 30,0 L 52,15 L 52,37 L 30,52 L 8,37 L 8,15 Z"
            fill="none" stroke="#3ee7f2" stroke-width="0.5" opacity="0.1"/>
    </pattern>
  </defs>
  <rect width="3000" height="800" fill="url(#hexPattern)"/>
  <g stroke="#3ee7f2" stroke-width="1.5" fill="none" opacity="0.22">
    <path d="M 0 150 Q 250 130, 500 150 T 1000 150 T 1500 150 T 2000 150 T 2500 150 T 3000 150"/>
    <path d="M 0 250 Q 250 230, 500 250 T 1000 250 T 1500 250 T 2000 250 T 2500 250 T 3000 250"/>
    <path d="M 0 400 Q 250 380, 500 400 T 1000 400 T 1500 400 T 2000 400 T 2500 400 T 3000 400"/>
    <path d="M 0 550 Q 250 530, 500 550 T 1000 550 T 1500 550 T 2000 550 T 2500 550 T 3000 550"/>
    <path d="M 0 650 Q 250 630, 500 650 T 1000 650 T 1500 650 T 2000 650 T 2500 650 T 3000 650"/>
  </g>
  <g transform="translate(1500, 300)">
    <text x="0" y="0" text-anchor="middle" font-family="'Space Grotesk', 'IBM Plex Sans', sans-serif" font-size="160"
          font-weight="600" letter-spacing="12" fill="#eef2f7">PSYFI</text>
    <text x="0" y="90" text-anchor="middle" font-family="'IBM Plex Sans', sans-serif" font-size="36"
          font-weight="400" letter-spacing="6" fill="#9aa6b8">APPLIED ALCHEMY LABS</text>
    <text x="0" y="140" text-anchor="middle" font-family="'IBM Plex Mono', monospace" font-size="26"
          font-weight="400" letter-spacing="4" fill="#6d7a8f">CONSCIOUSNESS SIMULATION</text>
  </g>
  <g transform="translate(200, 680)" opacity="0.85">
    <circle cx="0" cy="0" r="35" stroke="#3ee7f2" stroke-width="1.5" fill="none"/>
    <path d="M 0,-18 L 15.6,-9 L 15.6,9 L 0,18 L -15.6,9 L -15.6,-9 Z"
          stroke="#3ee7f2" stroke-width="1.5" fill="none"/>
    <circle cx="0" cy="0" r="3" fill="#3ee7f2"/>
  </g>
  <text x="260" y="690" font-family="'IBM Plex Mono', monospace" font-size="14"
        font-weight="400" fill="#6d7a8f">AAL-PSYFI-v1.3</text>
</svg>
